<?xml version="1.0" encoding="UTF-8"?>
<!DOCTYPE svg PUBLIC "-//W3C//DTD SVG 1.1//EN" "http://www.w3.org/Graphics/SVG/1.1/DTD/svg11.dtd">
<svg xmlns="http://www.w3.org/2000/svg" xml:space="preserve" width="131.911mm" height="31.6471mm" version="1.1" style="shape-rendering:geometricPrecision; text-rendering:geometricPrecision; image-rendering:optimizeQuality; fill-rule:evenodd; clip-rule:evenodd"
viewBox="0 0 4885 1172"
 xmlns:xlink="http://www.w3.org/1999/xlink">
 <defs>
  <style type="text/css">
   <![CDATA[
    .fil1 {fill:#F1B300;fill-rule:nonzero}
    .fil0 {fill:white;fill-rule:nonzero}
   ]]>
  </style>
 </defs>
 <g id="Layer_x0020_1">
  <metadata id="CorelCorpID_0Corel-Layer"/>
  <path class="fil0" d="M226 575c0,26 2,45 8,56 5,12 15,20 29,24 14,4 36,7 66,7l0 21c-79,-2 -138,-3 -177,-3 -18,0 -69,1 -152,3l0 -19c21,-1 37,-4 47,-8 9,-4 16,-11 20,-22 3,-11 5,-29 5,-53l0 -479c0,-24 -2,-42 -5,-52 -4,-12 -11,-19 -20,-23 -10,-4 -26,-7 -47,-8l0 -19c32,2 81,3 146,3 26,0 55,0 86,-1 32,-1 54,-1 66,-1 58,0 107,8 147,24 40,16 71,38 90,66 20,29 30,62 30,100 0,35 -9,69 -26,102 -18,33 -49,60 -92,82 -43,21 -100,32 -170,32l-51 0 0 168zm41 -187c53,0 89,-17 108,-50 20,-34 30,-79 30,-136 0,-63 -9,-109 -28,-138 -18,-30 -49,-45 -91,-45 -18,0 -30,3 -39,7 -8,5 -14,13 -17,24 -3,12 -4,29 -4,52l0 286 41 0z"/>
  <path id="1" class="fil0" d="M864 276c0,-27 -6,-48 -19,-63 -13,-16 -33,-23 -60,-23 -12,0 -25,2 -37,6 -13,4 -23,10 -31,17 17,6 31,16 41,28 10,13 15,29 15,48 0,13 -3,25 -9,36 -7,10 -16,19 -28,25 -12,6 -25,9 -41,9 -20,0 -37,-7 -49,-21 -13,-14 -19,-32 -19,-54 0,-33 18,-60 54,-80 39,-22 88,-33 147,-33 66,0 113,14 140,43 14,14 23,31 28,51 4,20 7,48 7,84l0 263c0,15 1,26 4,33 3,6 9,9 16,9 11,0 23,-5 36,-16l10 16c-15,13 -31,22 -48,27 -17,6 -38,9 -62,9 -33,0 -57,-8 -71,-22 -15,-15 -22,-33 -22,-56 -15,26 -36,45 -61,58 -26,13 -53,20 -82,20 -37,0 -66,-10 -88,-29 -22,-20 -33,-47 -33,-81 0,-34 10,-61 33,-83 22,-22 56,-42 102,-59 5,-2 21,-8 49,-18 27,-11 47,-22 60,-33 12,-11 18,-23 18,-36l0 -75zm0 115c-4,6 -11,14 -20,21 -9,7 -23,16 -40,27 -20,14 -36,30 -48,48 -12,18 -17,40 -17,66 0,25 5,44 16,56 11,13 26,19 44,19 25,0 47,-13 65,-40l0 -197z"/>
  <path id="2" class="fil0" d="M1142 497c6,56 20,99 41,130 20,32 50,48 88,48 19,0 35,-6 49,-18 13,-11 20,-28 20,-51 0,-18 -4,-34 -12,-48 -8,-14 -18,-27 -31,-38 -12,-11 -30,-26 -55,-45 -30,-24 -52,-43 -67,-57 -15,-14 -28,-30 -38,-49 -11,-19 -16,-41 -16,-65 0,-28 7,-52 22,-72 15,-20 35,-35 61,-45 25,-11 53,-16 83,-16 24,0 47,3 67,9 21,6 37,13 48,21 7,4 12,6 17,6 12,0 20,-11 23,-35l21 0c-2,32 -4,89 -4,170l-21 0c-5,-43 -18,-78 -38,-107 -19,-28 -48,-43 -85,-43 -19,0 -35,6 -47,17 -13,11 -19,26 -19,45 0,22 7,40 22,56 14,16 32,31 52,45 21,15 36,25 45,33 26,19 47,37 63,51 15,15 28,32 38,51 10,18 14,40 14,64 0,28 -8,53 -24,75 -17,22 -39,38 -67,50 -28,12 -59,18 -92,18 -34,0 -64,-7 -89,-21 -19,-9 -35,-16 -46,-20 -1,0 -3,-1 -4,-1 -11,0 -18,12 -23,35l-21 0c2,-37 4,-101 4,-193l21 0z"/>
  <path id="3" class="fil0" d="M1587 497c7,56 20,99 41,130 21,32 51,48 89,48 19,0 35,-6 48,-18 14,-11 20,-28 20,-51 0,-18 -4,-34 -12,-48 -8,-14 -18,-27 -30,-38 -12,-11 -31,-26 -55,-45 -30,-24 -53,-43 -67,-57 -15,-14 -28,-30 -39,-49 -11,-19 -16,-41 -16,-65 0,-28 8,-52 23,-72 15,-20 35,-35 61,-45 25,-11 53,-16 82,-16 25,0 47,3 68,9 20,6 36,13 48,21 6,4 12,6 17,6 12,0 19,-11 22,-35l22 0c-3,32 -4,89 -4,170l-21 0c-6,-43 -19,-78 -38,-107 -20,-28 -48,-43 -86,-43 -19,0 -35,6 -47,17 -12,11 -18,26 -18,45 0,22 7,40 22,56 14,16 31,31 52,45 20,15 35,25 44,33 27,19 48,37 63,51 16,15 29,32 38,51 10,18 15,40 15,64 0,28 -8,53 -25,75 -16,22 -39,38 -66,50 -28,12 -59,18 -92,18 -35,0 -64,-7 -90,-21 -19,-9 -34,-16 -45,-20 -2,0 -3,-1 -5,-1 -10,0 -18,12 -22,35l-22 0c3,-37 4,-101 4,-193l21 0z"/>
  <path id="4" class="fil0" d="M2255 276c0,-27 -7,-48 -19,-63 -13,-16 -33,-23 -60,-23 -12,0 -25,2 -38,6 -12,4 -22,10 -31,17 18,6 32,16 42,28 10,13 15,29 15,48 0,13 -3,25 -9,36 -7,10 -16,19 -28,25 -12,6 -25,9 -41,9 -21,0 -37,-7 -49,-21 -13,-14 -19,-32 -19,-54 0,-33 18,-60 54,-80 39,-22 88,-33 147,-33 65,0 112,14 140,43 14,14 23,31 28,51 4,20 7,48 7,84l0 263c0,15 1,26 4,33 3,6 9,9 16,9 11,0 22,-5 36,-16l10 16c-15,13 -31,22 -48,27 -18,6 -38,9 -62,9 -33,0 -57,-8 -71,-22 -15,-15 -22,-33 -22,-56 -15,26 -36,45 -61,58 -26,13 -53,20 -82,20 -37,0 -66,-10 -88,-29 -22,-20 -34,-47 -34,-81 0,-34 11,-61 33,-83 22,-22 57,-42 103,-59 5,-2 21,-8 49,-18 27,-11 47,-22 60,-33 12,-11 18,-23 18,-36l0 -75zm0 115c-4,6 -11,14 -20,21 -9,7 -23,16 -40,27 -20,14 -36,30 -48,48 -12,18 -17,40 -17,66 0,25 5,44 16,56 11,13 25,19 43,19 26,0 48,-13 66,-40l0 -197z"/>
  <path id="5" class="fil0" d="M2497 0c70,2 175,3 315,3 94,0 161,-1 201,-3 -4,55 -6,104 -6,146 0,31 1,55 3,74l-23 0c-8,-49 -20,-88 -34,-117 -15,-29 -32,-50 -53,-62 -22,-13 -48,-19 -78,-19l-32 0c-21,0 -35,2 -44,5 -9,3 -15,10 -18,19 -3,9 -5,24 -5,45l0 243 34 0c34,0 60,-13 78,-38 17,-25 29,-55 36,-90l23 0c-3,32 -4,62 -4,91l1 46c0,34 2,80 6,137l-23 0c-13,-84 -52,-127 -117,-127l-34 0 0 222c0,26 3,45 8,56 5,12 15,20 29,24 14,4 36,7 66,7l0 21c-79,-2 -138,-3 -177,-3 -18,0 -69,1 -152,3l0 -19c22,-1 37,-4 47,-8 10,-4 16,-11 20,-22 4,-11 5,-29 5,-53l0 -479c0,-24 -1,-42 -5,-52 -4,-12 -10,-19 -20,-23 -10,-4 -25,-7 -47,-8l0 -19z"/>
  <path id="6" class="fil0" d="M3259 263c12,-27 30,-49 53,-66 23,-17 49,-26 79,-26 19,0 35,4 49,13 13,8 22,19 29,32 6,14 9,28 9,44 0,23 -7,43 -21,58 -13,15 -32,23 -54,23 -22,0 -39,-6 -52,-17 -13,-11 -19,-26 -19,-45 0,-31 14,-56 42,-75 -4,-1 -8,-2 -12,-2 -4,0 -9,1 -15,2 -16,3 -31,11 -45,24 -13,13 -24,28 -31,47 -8,18 -12,36 -12,53l0 256c0,29 7,50 22,62 14,11 37,17 69,17l0 20c-80,-3 -131,-4 -153,-4 -21,0 -67,1 -138,4l0 -20c15,0 27,-2 36,-6 9,-4 15,-11 19,-22 4,-9 6,-23 6,-41l0 -305c0,-30 -4,-51 -13,-65 -10,-13 -26,-20 -48,-20l0 -20c20,2 40,3 59,3 57,0 104,-4 141,-13l0 89z"/>
  <path id="7" class="fil0" d="M3776 276c0,-27 -6,-48 -19,-63 -13,-16 -33,-23 -60,-23 -12,0 -25,2 -37,6 -13,4 -23,10 -31,17 17,6 31,16 42,28 10,13 15,29 15,48 0,13 -4,25 -10,36 -7,10 -16,19 -28,25 -12,6 -25,9 -41,9 -20,0 -37,-7 -49,-21 -13,-14 -19,-32 -19,-54 0,-33 18,-60 54,-80 39,-22 88,-33 147,-33 66,0 113,14 141,43 13,14 22,31 27,51 5,20 7,48 7,84l0 263c0,15 1,26 4,33 3,6 9,9 16,9 11,0 23,-5 36,-16l10 16c-15,13 -31,22 -48,27 -17,6 -38,9 -62,9 -33,0 -57,-8 -71,-22 -14,-15 -22,-33 -22,-56 -15,26 -36,45 -61,58 -26,13 -53,20 -82,20 -37,0 -66,-10 -88,-29 -22,-20 -33,-47 -33,-81 0,-34 11,-61 33,-83 22,-22 56,-42 102,-59 5,-2 21,-8 49,-18 27,-11 47,-22 60,-33 12,-11 18,-23 18,-36l0 -75zm0 115c-4,6 -11,14 -20,21 -9,7 -23,16 -40,27 -20,14 -36,30 -48,48 -11,18 -17,40 -17,66 0,25 5,44 16,56 11,13 26,19 44,19 25,0 47,-13 65,-40l0 -197z"/>
  <path id="8" class="fil0" d="M4054 497c6,56 20,99 41,130 20,32 50,48 89,48 18,0 34,-6 48,-18 13,-11 20,-28 20,-51 0,-18 -4,-34 -12,-48 -8,-14 -18,-27 -31,-38 -12,-11 -30,-26 -55,-45 -30,-24 -52,-43 -67,-57 -15,-14 -28,-30 -38,-49 -11,-19 -16,-41 -16,-65 0,-28 7,-52 22,-72 15,-20 36,-35 61,-45 26,-11 53,-16 83,-16 25,0 47,3 67,9 21,6 37,13 48,21 7,4 12,6 17,6 12,0 20,-11 23,-35l21 0c-2,32 -4,89 -4,170l-21 0c-5,-43 -18,-78 -38,-107 -19,-28 -48,-43 -85,-43 -19,0 -35,6 -47,17 -13,11 -19,26 -19,45 0,22 8,40 22,56 14,16 32,31 52,45 21,15 36,25 45,33 26,19 47,37 63,51 15,15 28,32 38,51 10,18 14,40 14,64 0,28 -8,53 -24,75 -17,22 -39,38 -67,50 -28,12 -59,18 -92,18 -34,0 -64,-7 -89,-21 -19,-9 -35,-16 -46,-20 -1,0 -3,-1 -4,-1 -11,0 -18,12 -23,35l-21 0c2,-37 4,-101 4,-193l21 0z"/>
  <path id="9" class="fil0" d="M4614 385c-1,9 -1,24 -1,45 0,43 5,78 17,106 12,28 28,49 47,62 19,13 39,20 61,20 53,0 95,-26 127,-78l17 6c-8,26 -20,51 -37,74 -18,23 -39,41 -65,55 -27,15 -57,22 -90,22 -45,0 -83,-10 -117,-29 -33,-18 -59,-47 -78,-86 -19,-38 -28,-86 -28,-143 0,-58 10,-108 30,-148 20,-40 48,-70 84,-90 35,-20 76,-30 123,-30 120,0 181,71 181,214l-271 0zm149 -19c1,-50 -4,-92 -15,-125 -11,-33 -28,-50 -51,-50 -23,0 -42,15 -57,43 -15,28 -24,72 -28,132l151 0z"/>
  <path class="fil1" d="M191 975c1,-9 2,-17 2,-24 0,-10 -1,-18 -4,-23 -5,-8 -12,-14 -20,-19 -9,-4 -19,-7 -30,-7 -22,0 -42,10 -58,28 -17,19 -29,41 -38,68 -9,26 -13,50 -13,72 0,20 5,34 14,43 9,9 23,14 42,14 7,0 13,-1 20,-3 6,-2 12,-4 16,-7 5,-3 8,-5 10,-9 2,-3 4,-7 5,-11l7 -29c2,-7 3,-12 3,-16 0,-4 -1,-7 -2,-9 -2,-2 -5,-3 -9,-4 -3,-1 -9,-1 -16,-2l2 -6c10,1 25,1 45,1 15,0 26,0 34,-1l-2 6c-5,1 -9,2 -11,3 -3,1 -5,4 -7,7 -1,4 -3,10 -6,18l-17 64 -6 0c0,-4 1,-6 1,-9 0,-6 -2,-10 -5,-10 -1,0 -3,1 -4,2 -2,0 -4,2 -8,4 -9,6 -18,10 -27,13 -9,3 -18,4 -28,4 -26,0 -46,-6 -60,-19 -14,-13 -21,-31 -21,-54 0,-25 6,-50 18,-76 12,-25 29,-46 51,-63 21,-16 45,-24 72,-24 9,0 16,1 23,2 6,2 12,4 16,7 4,3 9,7 14,12 2,2 4,2 5,2 4,0 9,-6 13,-19l7 0c-7,19 -14,43 -21,74l-7 0z"/>
  <path id="1" class="fil1" d="M322 1090c-5,8 -10,15 -17,21 -7,7 -14,12 -22,16 -9,4 -17,6 -26,6 -13,0 -24,-3 -31,-11 -8,-8 -11,-19 -11,-34 0,-16 4,-35 14,-55 9,-20 22,-38 39,-52 16,-15 34,-22 53,-22 7,0 12,2 17,6 4,3 6,9 6,15 0,18 -9,33 -29,46 -19,13 -41,23 -67,32 -2,11 -3,21 -3,31 0,21 7,31 22,31 18,0 35,-11 50,-32l5 2zm-8 -125c-7,0 -15,4 -24,12 -8,8 -16,19 -23,32 -8,14 -13,28 -17,43 21,-8 36,-15 44,-21 8,-6 14,-14 18,-23 5,-8 7,-18 7,-28 0,-6 -1,-10 -2,-12 0,-2 -2,-3 -3,-3z"/>
  <path id="2" class="fil1" d="M511 1100c-7,22 -20,33 -39,33 -9,0 -16,-3 -20,-9 -2,-3 -3,-6 -3,-11 0,-6 2,-14 6,-25l30 -92c3,-6 4,-11 4,-16 0,-7 -4,-11 -11,-11 -8,0 -17,6 -28,18 -10,12 -20,29 -30,50 -10,21 -19,44 -26,69l-6 23 -28 0 39 -138c1,-5 2,-9 2,-12 0,-5 -2,-8 -7,-8 -3,0 -6,1 -9,3 -3,2 -5,5 -8,10 -2,5 -5,11 -8,20l-4 12 -6 0 8 -24c7,-22 20,-33 38,-33 13,0 19,6 19,19 0,6 -2,15 -4,26l-12 44c10,-22 18,-39 27,-52 9,-13 17,-22 26,-28 9,-6 18,-9 28,-9 17,0 26,8 26,24 0,7 -2,15 -5,25l-31 94c-2,5 -3,9 -3,12 0,5 3,7 8,7 5,0 9,-2 13,-7 4,-5 8,-13 12,-25l4 -12 6 0 -8 23z"/>
  <path id="3" class="fil1" d="M646 1090c-4,8 -10,15 -16,21 -7,7 -15,12 -23,16 -8,4 -17,6 -25,6 -14,0 -24,-3 -32,-11 -7,-8 -11,-19 -11,-34 0,-16 5,-35 14,-55 10,-20 23,-38 39,-52 16,-15 34,-22 53,-22 7,0 13,2 17,6 5,3 7,9 7,15 0,18 -10,33 -29,46 -19,13 -42,23 -67,32 -2,11 -4,21 -4,31 0,21 8,31 22,31 19,0 35,-11 50,-32l5 2zm-8 -125c-7,0 -14,4 -23,12 -8,8 -16,19 -24,32 -7,14 -13,28 -17,43 21,-8 36,-15 44,-21 8,-6 14,-14 19,-23 4,-8 6,-18 6,-28 0,-6 0,-10 -1,-12 -1,-2 -2,-3 -4,-3z"/>
  <path id="4" class="fil1" d="M733 1045c8,-21 16,-38 23,-50 7,-13 14,-22 21,-27 7,-6 15,-9 23,-9 6,0 11,2 14,5 4,4 5,8 5,13 0,5 -1,8 -3,12 -2,4 -5,6 -8,8 -4,3 -7,4 -11,4 -4,0 -7,-1 -10,-4 -2,-2 -3,-4 -3,-8 0,-10 5,-17 14,-21 0,0 -2,-1 -3,-1 -8,0 -16,6 -25,17 -8,11 -17,27 -26,48 -9,20 -17,43 -25,70l-7 27 -28 0 39 -138c1,-6 2,-10 2,-13 0,-5 -2,-7 -7,-7 -4,0 -9,2 -13,8 -4,5 -8,13 -12,25l-4 12 -6 0 8 -24c8,-22 20,-33 39,-33 12,0 18,6 18,19 0,3 0,7 -1,11 -1,3 -2,9 -3,15l-11 41z"/>
  <path id="5" class="fil1" d="M956 1076l-8 24c-4,12 -10,20 -16,26 -7,5 -14,7 -21,7 -4,0 -7,0 -10,-2 -3,-1 -6,-3 -8,-6 -1,-3 -2,-7 -2,-11 0,-4 0,-7 1,-10 1,-4 1,-7 2,-10 1,-3 2,-5 2,-6l6 -23c-11,24 -21,41 -32,52 -10,11 -21,16 -33,16 -10,0 -17,-3 -23,-10 -5,-7 -7,-17 -7,-29 0,-17 4,-36 13,-58 10,-21 22,-39 36,-54 15,-15 30,-23 46,-23 5,0 10,2 14,6 3,5 6,11 6,18l5 -19c12,-1 22,-2 30,-5l-40 142c-2,6 -3,10 -3,12 0,6 3,8 8,8 9,0 17,-11 24,-33l4 -12 6 0zm-38 -76c0,-3 0,-5 0,-7 0,-8 -1,-15 -4,-20 -3,-5 -8,-8 -13,-8 -10,0 -19,7 -30,22 -10,14 -19,31 -26,52 -6,21 -10,41 -10,59 0,9 1,15 3,19 2,4 5,6 8,6 6,0 13,-5 22,-14 8,-9 16,-21 24,-36 8,-16 15,-32 20,-49l6 -24z"/>
  <path id="6" class="fil1" d="M1072 1124c4,2 9,3 15,3 10,0 18,-3 24,-9 6,-6 9,-14 9,-24 0,-7 -2,-14 -4,-20 -3,-7 -7,-14 -13,-23 -5,-7 -9,-12 -11,-16 -3,-4 -5,-8 -7,-13 -2,-6 -3,-11 -3,-17 0,-9 2,-17 7,-24 4,-7 10,-12 18,-16 8,-4 16,-6 25,-6 11,0 20,2 28,6 7,4 11,12 11,22 0,2 0,5 -1,7 -1,3 -3,5 -5,7 -2,2 -5,3 -9,3 -3,0 -6,-2 -9,-4 -2,-3 -4,-6 -4,-10 0,-7 3,-14 10,-21 -5,-3 -10,-4 -17,-4 -8,0 -14,3 -20,8 -5,6 -8,13 -8,22 0,6 1,11 3,15 2,4 5,9 8,14 4,5 7,9 9,12 6,10 11,18 14,25 3,7 5,14 5,22 0,10 -3,18 -8,26 -5,8 -12,14 -20,18 -8,4 -18,6 -28,6 -12,0 -22,-2 -31,-7 -8,-6 -12,-14 -12,-24 0,-4 1,-8 3,-10 2,-3 5,-5 10,-5 4,0 8,2 10,6 3,4 4,9 4,14 0,4 -1,10 -3,17z"/>
  <path id="7" class="fil1" d="M1236 909c0,-4 1,-8 4,-12 2,-4 5,-7 9,-9 3,-2 7,-3 11,-3 5,0 9,1 12,4 3,3 4,8 4,12 0,5 -1,8 -3,12 -2,4 -5,7 -9,9 -4,2 -8,4 -12,4 -4,0 -8,-2 -11,-5 -3,-3 -5,-7 -5,-12zm-9 82c1,-5 2,-9 2,-12 0,-5 -2,-8 -7,-8 -5,0 -9,2 -13,8 -4,5 -8,13 -12,25l-5 12 -6 0 9 -24c4,-12 10,-21 17,-25 7,-5 14,-8 22,-8 15,0 22,7 22,20 0,6 -2,15 -6,25l-34 98c-2,4 -3,8 -3,11 0,6 3,8 8,8 5,0 9,-2 13,-7 3,-5 8,-13 12,-25l5 -12 6 0 -8 23c-5,12 -10,20 -17,26 -7,5 -15,7 -23,7 -15,0 -23,-6 -23,-19 0,-7 2,-15 6,-26l35 -97z"/>
  <path id="8" class="fil1" d="M1386 1090c-5,8 -10,15 -17,21 -7,7 -14,12 -22,16 -9,4 -17,6 -26,6 -13,0 -23,-4 -31,-12 -8,-8 -11,-19 -11,-35 0,-17 4,-36 12,-56 8,-20 20,-37 34,-50 15,-14 32,-21 51,-21 6,0 12,1 17,3 6,3 10,6 13,10 3,4 5,9 5,14 0,5 -1,9 -3,13 -2,4 -5,7 -8,9 -4,3 -8,4 -12,4 -5,0 -8,-1 -10,-3 -2,-3 -4,-6 -4,-9 0,-6 3,-12 8,-16 4,-5 10,-7 17,-9 -5,-6 -12,-9 -22,-9 -11,0 -22,5 -32,17 -11,11 -20,27 -26,46 -7,19 -10,39 -10,60 0,10 1,18 5,23 4,5 10,8 17,8 17,0 34,-11 48,-32l7 2z"/>
  <path id="9" class="fil1" d="M1578 1077l-8 23c-7,22 -20,33 -38,33 -4,0 -7,0 -10,-2 -3,-1 -6,-4 -7,-6 -1,-3 -2,-6 -2,-10 0,-6 2,-15 5,-27l10 -40c-9,21 -17,37 -25,50 -8,12 -16,21 -24,27 -8,6 -17,8 -26,8 -18,0 -27,-8 -27,-24 0,-7 1,-15 4,-24l31 -94c2,-5 3,-9 3,-12 0,-5 -3,-8 -8,-8 -4,0 -8,2 -12,7 -4,5 -8,14 -13,26l-4 12 -6 0 8 -24c8,-22 21,-33 39,-33 15,0 23,7 23,20 0,6 -2,14 -6,25l-30 92c-2,6 -3,12 -3,16 0,7 3,11 10,11 8,0 17,-6 27,-18 10,-12 20,-28 30,-50 9,-21 18,-45 25,-72l5 -19c12,-1 22,-2 29,-5l-39 143c-2,5 -3,9 -3,12 0,5 3,7 7,7 5,0 9,-2 13,-7 4,-5 8,-14 12,-25l4 -12 6 0z"/>
  <path id="10" class="fil1" d="M1654 1045c8,-21 16,-38 23,-50 6,-13 14,-22 21,-27 7,-6 15,-9 23,-9 6,0 11,2 14,5 3,4 5,8 5,13 0,5 -1,8 -3,12 -2,4 -5,6 -8,8 -4,3 -7,4 -11,4 -4,0 -7,-1 -10,-4 -2,-2 -3,-4 -3,-8 0,-10 5,-17 14,-21 -1,0 -2,-1 -3,-1 -8,0 -16,6 -25,17 -8,11 -17,27 -26,48 -9,20 -17,43 -25,70l-7 27 -28 0 39 -138c1,-6 2,-10 2,-13 0,-5 -2,-7 -7,-7 -5,0 -9,2 -13,8 -4,5 -8,13 -12,25l-4 12 -6 0 8 -24c7,-22 20,-33 39,-33 12,0 18,6 18,19 0,3 0,7 -1,11 -1,3 -2,9 -3,15l-11 41z"/>
  <path id="11" class="fil1" d="M1836 1090c-5,8 -10,15 -17,21 -7,7 -14,12 -23,16 -8,4 -16,6 -25,6 -13,0 -24,-3 -31,-11 -8,-8 -11,-19 -11,-34 0,-16 4,-35 14,-55 9,-20 22,-38 39,-52 16,-15 34,-22 53,-22 7,0 12,2 17,6 4,3 6,9 6,15 0,18 -9,33 -29,46 -19,13 -41,23 -67,32 -2,11 -3,21 -3,31 0,21 7,31 22,31 18,0 35,-11 50,-32l5 2zm-8 -125c-7,0 -15,4 -24,12 -8,8 -16,19 -23,32 -8,14 -13,28 -17,43 21,-8 36,-15 44,-21 8,-6 14,-14 18,-23 5,-8 7,-18 7,-28 0,-6 -1,-10 -2,-12 0,-2 -2,-3 -3,-3z"/>
  <path id="12" class="fil1" d="M1871 1116c9,-6 17,-10 23,-13 6,-2 12,-3 18,-3 5,0 10,1 16,3 5,2 10,4 14,5 4,1 9,2 13,2 6,0 10,-1 13,-4 3,-3 5,-7 5,-12 0,-6 -3,-11 -7,-15 -5,-4 -11,-7 -19,-8l2 -5c10,2 18,6 23,11 6,5 9,12 9,20 0,6 -2,12 -4,17 -3,5 -7,9 -12,12 -6,3 -13,5 -22,5 -7,0 -14,-2 -21,-5 -7,-3 -13,-5 -17,-7 -4,-1 -10,-2 -17,-2 -6,0 -11,1 -16,3 -4,1 -9,4 -13,9l-9 0 145 -153c-9,6 -17,11 -23,13 -6,3 -12,4 -17,4 -6,0 -11,-1 -17,-3 -5,-2 -10,-4 -14,-6 -4,-1 -8,-1 -13,-1 -5,0 -10,1 -13,4 -3,2 -5,6 -5,12 0,5 3,10 7,14 5,4 11,7 19,9l-2 5c-21,-5 -31,-16 -31,-32 0,-6 1,-11 3,-16 3,-5 7,-10 13,-13 5,-3 12,-4 21,-4 7,0 14,1 21,4 7,3 13,5 17,7 5,2 10,2 17,2 6,0 11,0 16,-2 4,-2 9,-5 13,-9l9 0 -145 152z"/>
  <path id="13" class="fil1" d="M2014 1116c10,-6 17,-10 23,-13 6,-2 12,-3 18,-3 5,0 10,1 16,3 6,2 10,4 14,5 4,1 9,2 13,2 6,0 10,-1 13,-4 3,-3 5,-7 5,-12 0,-6 -3,-11 -7,-15 -5,-4 -11,-7 -18,-8l1 -5c10,2 18,6 24,11 5,5 8,12 8,20 0,6 -2,12 -4,17 -3,5 -7,9 -12,12 -6,3 -13,5 -22,5 -7,0 -14,-2 -21,-5 -7,-3 -13,-5 -17,-7 -4,-1 -10,-2 -17,-2 -6,0 -11,1 -16,3 -4,1 -9,4 -13,9l-9 0 145 -153c-9,6 -17,11 -23,13 -6,3 -12,4 -17,4 -6,0 -11,-1 -17,-3 -5,-2 -10,-4 -14,-6 -4,-1 -8,-1 -13,-1 -5,0 -10,1 -13,4 -3,2 -5,6 -5,12 0,5 3,10 8,14 4,4 10,7 18,9l-2 5c-21,-5 -31,-16 -31,-32 0,-6 1,-11 4,-16 2,-5 6,-10 12,-13 5,-3 12,-4 21,-4 7,0 14,1 21,4 7,3 13,5 17,7 5,2 10,2 17,2 6,0 11,0 16,-2 4,-2 9,-5 13,-9l9 0 -145 152z"/>
  <path id="14" class="fil1" d="M2301 1076l-8 24c-4,12 -10,20 -16,26 -7,5 -14,7 -21,7 -4,0 -7,0 -10,-2 -3,-1 -6,-3 -8,-6 -1,-3 -2,-7 -2,-11 0,-4 0,-7 1,-10 1,-4 1,-7 2,-10 1,-3 2,-5 2,-6l6 -23c-11,24 -21,41 -32,52 -10,11 -21,16 -33,16 -10,0 -17,-3 -23,-10 -5,-7 -7,-17 -7,-29 0,-17 4,-36 14,-58 9,-21 21,-39 35,-54 15,-15 30,-23 46,-23 5,0 10,2 14,6 3,5 6,11 6,18l5 -19c12,-1 22,-2 30,-5l-40 142c-2,6 -3,10 -3,12 0,6 3,8 8,8 9,0 17,-11 24,-33l4 -12 6 0zm-38 -76c0,-3 0,-5 0,-7 0,-8 -1,-15 -4,-20 -3,-5 -8,-8 -13,-8 -10,0 -19,7 -30,22 -10,14 -19,31 -26,52 -6,21 -10,41 -10,59 0,9 1,15 3,19 2,4 5,6 8,6 6,0 13,-5 22,-14 8,-9 16,-21 24,-36 8,-16 15,-32 20,-49l6 -24z"/>
  <path id="15" class="fil1" d="M2310 1168c10,-7 18,-13 24,-21 6,-7 9,-14 10,-22 -6,6 -12,8 -17,8 -4,0 -7,-1 -9,-3 -2,-2 -3,-4 -3,-8 0,-4 1,-9 4,-14 3,-4 7,-8 11,-11 5,-3 10,-5 14,-5 5,0 9,2 11,6 2,3 4,8 4,13 0,8 -2,15 -6,23 -4,7 -9,14 -16,21 -8,7 -16,12 -26,17l-1 -4z"/>
  <path id="16" class="fil1" d="M2540 909c0,-4 1,-8 3,-12 2,-4 5,-7 9,-9 4,-2 8,-3 12,-3 5,0 8,1 11,4 4,3 5,8 5,12 0,5 -1,8 -3,12 -3,4 -6,7 -9,9 -4,2 -8,4 -12,4 -5,0 -9,-2 -12,-5 -3,-3 -4,-7 -4,-12zm-10 82c2,-5 3,-9 3,-12 0,-5 -3,-8 -7,-8 -5,0 -10,2 -13,8 -4,5 -8,13 -13,25l-4 12 -6 0 8 -24c4,-12 10,-21 17,-25 7,-5 15,-8 23,-8 14,0 21,7 21,20 0,6 -1,15 -5,25l-34 98c-2,4 -3,8 -3,11 0,6 3,8 8,8 4,0 8,-2 12,-7 4,-5 8,-13 13,-25l4 -12 6 0 -8 23c-4,12 -10,20 -17,26 -7,5 -14,7 -22,7 -15,0 -23,-6 -23,-19 0,-7 2,-15 6,-26l34 -97z"/>
  <path id="17" class="fil1" d="M2739 1100c-8,22 -21,33 -39,33 -10,0 -17,-3 -20,-9 -2,-3 -3,-6 -3,-11 0,-6 2,-14 6,-25l30 -92c2,-6 3,-11 3,-16 0,-7 -3,-11 -10,-11 -8,0 -18,6 -28,18 -10,12 -21,29 -30,50 -10,21 -19,44 -27,69l-5 23 -28 0 38 -138c2,-5 3,-9 3,-12 0,-5 -3,-8 -7,-8 -4,0 -7,1 -9,3 -3,2 -5,5 -8,10 -2,5 -5,11 -8,20l-5 12 -6 0 9 -24c7,-22 20,-33 38,-33 12,0 19,6 19,19 0,6 -2,15 -5,26l-11 44c9,-22 18,-39 27,-52 8,-13 17,-22 26,-28 8,-6 18,-9 28,-9 17,0 26,8 26,24 0,7 -2,15 -5,25l-31 94c-2,5 -3,9 -3,12 0,5 3,7 8,7 4,0 8,-2 12,-7 4,-5 8,-13 13,-25l4 -12 6 0 -8 23z"/>
  <path id="18" class="fil1" d="M2905 909c0,-4 1,-8 3,-12 2,-4 5,-7 9,-9 4,-2 8,-3 12,-3 4,0 8,1 11,4 3,3 5,8 5,12 0,5 -1,8 -3,12 -3,4 -6,7 -9,9 -4,2 -8,4 -12,4 -5,0 -9,-2 -12,-5 -3,-3 -4,-7 -4,-12zm-10 82c2,-5 3,-9 3,-12 0,-5 -3,-8 -7,-8 -5,0 -10,2 -14,8 -3,5 -7,13 -12,25l-4 12 -6 0 8 -24c4,-12 10,-21 17,-25 7,-5 15,-8 23,-8 14,0 21,7 21,20 0,6 -2,15 -5,25l-34 98c-2,4 -3,8 -3,11 0,6 3,8 8,8 4,0 8,-2 12,-7 4,-5 8,-13 13,-25l4 -12 6 0 -8 23c-4,12 -10,20 -17,26 -7,5 -14,7 -23,7 -14,0 -22,-6 -22,-19 0,-7 2,-15 6,-26l34 -97z"/>
  <path id="19" class="fil1" d="M2980 1102c0,2 -1,4 -1,7 0,4 2,7 4,9 3,2 6,3 10,3 6,0 11,-2 15,-6 5,-5 9,-13 14,-26l4 -12 6 0 -6 20c-5,13 -11,23 -18,28 -7,6 -16,8 -26,8 -10,0 -17,-2 -22,-7 -5,-4 -7,-11 -7,-19 0,-5 1,-12 3,-19l34 -118 -29 0 2 -6 29 0 14 -49c12,-1 21,-2 29,-5l-16 54 43 0 -1 6 -43 0 -38 132z"/>
  <path id="20" class="fil1" d="M3202 1076l-8 24c-4,12 -10,20 -17,26 -6,5 -13,7 -20,7 -4,0 -8,0 -11,-2 -3,-1 -5,-3 -7,-6 -2,-3 -3,-7 -3,-11 0,-4 1,-7 2,-10 0,-4 1,-7 2,-10 1,-3 1,-5 1,-6l6 -23c-10,24 -20,41 -31,52 -11,11 -22,16 -33,16 -10,0 -18,-3 -23,-10 -5,-7 -8,-17 -8,-29 0,-17 5,-36 14,-58 9,-21 21,-39 36,-54 15,-15 30,-23 45,-23 6,0 11,2 14,6 4,5 6,11 7,18l5 -19c12,-1 22,-2 30,-5l-41 142c-1,6 -2,10 -2,12 0,6 2,8 7,8 10,0 18,-11 25,-33l4 -12 6 0zm-38 -76c0,-3 0,-5 0,-7 0,-8 -2,-15 -5,-20 -3,-5 -7,-8 -13,-8 -9,0 -19,7 -29,22 -10,14 -19,31 -26,52 -7,21 -10,41 -10,59 0,9 1,15 3,19 1,4 4,6 8,6 6,0 13,-5 21,-14 9,-9 17,-21 25,-36 8,-16 14,-32 20,-49l6 -24z"/>
  <path id="21" class="fil1" d="M3250 1102c-1,4 -2,8 -2,11 0,6 3,8 8,8 4,0 8,-2 12,-7 4,-5 8,-13 12,-25l4 -12 6 0 -8 23c-7,22 -20,33 -38,33 -15,0 -22,-7 -22,-20 0,-7 1,-15 4,-25l52 -174c1,-3 2,-6 2,-9 0,-4 -2,-7 -5,-9 -3,-2 -9,-3 -17,-3l2 -7c12,0 22,-1 31,-3 9,-2 18,-5 27,-10l-68 229z"/>
  <path id="22" class="fil1" d="M3367 909c0,-4 1,-8 3,-12 3,-4 6,-7 9,-9 4,-2 8,-3 12,-3 5,0 9,1 12,4 3,3 4,8 4,12 0,5 -1,8 -3,12 -2,4 -5,7 -9,9 -4,2 -8,4 -12,4 -5,0 -8,-2 -11,-5 -4,-3 -5,-7 -5,-12zm-9 82c1,-5 2,-9 2,-12 0,-5 -2,-8 -7,-8 -5,0 -9,2 -13,8 -4,5 -8,13 -12,25l-5 12 -6 0 8 -24c5,-12 11,-21 18,-25 7,-5 14,-8 22,-8 14,0 22,7 22,20 0,6 -2,15 -6,25l-34 98c-2,4 -3,8 -3,11 0,6 3,8 8,8 4,0 9,-2 12,-7 4,-5 9,-13 13,-25l5 -12 6 0 -9 23c-4,12 -9,20 -16,26 -7,5 -15,7 -23,7 -15,0 -23,-6 -23,-19 0,-7 2,-15 6,-26l35 -97z"/>
  <path id="23" class="fil1" d="M3556 1076l-8 24c-4,12 -10,20 -16,26 -7,5 -14,7 -21,7 -4,0 -7,0 -10,-2 -4,-1 -6,-3 -8,-6 -1,-3 -2,-7 -2,-11 0,-4 0,-7 1,-10 1,-4 1,-7 2,-10 1,-3 2,-5 2,-6l6 -23c-11,24 -21,41 -32,52 -10,11 -21,16 -33,16 -10,0 -17,-3 -23,-10 -5,-7 -7,-17 -7,-29 0,-17 4,-36 13,-58 10,-21 22,-39 36,-54 15,-15 30,-23 46,-23 5,0 10,2 14,6 3,5 6,11 6,18l5 -19c12,-1 22,-2 30,-5l-40 142c-2,6 -3,10 -3,12 0,6 3,8 8,8 9,0 17,-11 24,-33l4 -12 6 0zm-38 -76c0,-3 0,-5 0,-7 0,-8 -1,-15 -4,-20 -3,-5 -8,-8 -13,-8 -10,0 -19,7 -30,22 -10,14 -19,31 -26,52 -7,21 -10,41 -10,59 0,9 1,15 3,19 2,4 5,6 8,6 6,0 13,-5 22,-14 8,-9 16,-21 24,-36 8,-16 15,-32 20,-49l6 -24z"/>
  <path id="24" class="fil1" d="M3734 1100c-7,22 -20,33 -39,33 -9,0 -16,-3 -20,-9 -2,-3 -2,-6 -2,-11 0,-6 1,-14 5,-25l31 -92c2,-6 3,-11 3,-16 0,-7 -4,-11 -11,-11 -8,0 -17,6 -27,18 -11,12 -21,29 -31,50 -10,21 -19,44 -26,69l-6 23 -28 0 39 -138c1,-5 2,-9 2,-12 0,-5 -2,-8 -7,-8 -3,0 -6,1 -9,3 -2,2 -5,5 -7,10 -3,5 -6,11 -9,20l-4 12 -6 0 8 -24c8,-22 20,-33 38,-33 13,0 19,6 19,19 0,6 -1,15 -4,26l-11 44c9,-22 18,-39 26,-52 9,-13 17,-22 26,-28 9,-6 18,-9 28,-9 17,0 26,8 26,24 0,7 -2,15 -5,25l-31 94c-2,5 -2,9 -2,12 0,5 2,7 7,7 5,0 9,-2 13,-7 4,-5 8,-13 12,-25l4 -12 6 0 -8 23z"/>
  <path id="25" class="fil1" d="M3765 1083c0,-17 4,-35 11,-55 8,-19 19,-35 33,-49 14,-13 30,-20 49,-20 14,0 25,4 32,13 8,8 12,21 12,38 0,16 -4,35 -11,54 -8,19 -18,36 -32,49 -15,14 -31,20 -50,20 -13,0 -24,-4 -32,-12 -8,-9 -12,-22 -12,-38zm91 -117c-11,0 -21,7 -31,20 -10,14 -17,32 -23,53 -6,21 -9,41 -9,60 0,19 6,28 18,28 11,0 22,-7 31,-21 10,-14 18,-31 24,-52 6,-21 9,-41 9,-60 0,-10 -2,-17 -5,-22 -3,-4 -7,-6 -14,-6z"/>
 </g>
</svg>
