<?xml version="1.0" encoding="UTF-8"?>
<!DOCTYPE svg PUBLIC "-//W3C//DTD SVG 1.1//EN" "http://www.w3.org/Graphics/SVG/1.1/DTD/svg11.dtd">
<svg xmlns="http://www.w3.org/2000/svg" xml:space="preserve" width="88.0311mm" height="88.0311mm" version="1.1" style="shape-rendering:geometricPrecision; text-rendering:geometricPrecision; image-rendering:optimizeQuality; fill-rule:evenodd; clip-rule:evenodd"
viewBox="0 0 11788 11788"
 xmlns:xlink="http://www.w3.org/1999/xlink">
 <defs>
  <style type="text/css">
   <![CDATA[
    .fil0 {fill:#1D1C22}
    .fil1 {fill:#FAB900}
   ]]>
  </style>
 </defs>
 <g id="Layer_x0020_1">
  <metadata id="CorelCorpID_0Corel-Layer"/>
  <rect class="fil0" width="11788" height="11788"/>
  <g id="_2661545120976">
   <path class="fil1" d="M4682 2685c653,18 1636,-4 2952,-4 889,0 1520,-9 1895,-28 -41,517 -62,975 -62,1377 0,285 9,517 27,690l-208 0c-80,-464 -188,-831 -324,-1101 -136,-272 -302,-466 -501,-583 -200,-117 -444,-174 -733,-174l-301 0c-188,0 -326,15 -409,45 -85,32 -142,91 -171,179 -30,86 -45,226 -45,421l0 2285 319 0c321,0 566,-120 731,-357 165,-237 279,-518 344,-843l209 0c-21,298 -30,583 -30,855l3 434c0,315 19,745 59,1287l-213 0c-124,-796 -491,-1195 -1103,-1195l-319 0 0 2085c0,242 26,418 75,529 52,110 142,186 272,223 132,38 340,59 623,62l0 200c-743,-18 -1296,-27 -1661,-27 -173,0 -649,-82 -1429,-64l0 -91c201,-9 348,-33 438,-71 92,-37 154,-108 189,-213 33,-102 50,-267 50,-495l0 -4497c0,-228 -17,-392 -50,-495 -35,-104 -97,-176 -189,-213 -90,-38 -237,-62 -438,-71l0 -150z"/>
   <path class="fil1" d="M5334 8058c0,242 -25,418 -75,529 -52,110 -142,186 -272,223 -132,38 -340,59 -623,62l0 200c744,-18 1297,-27 1661,-27 174,0 649,-62 1429,-44l0 -111c-201,-9 -347,-33 -438,-71 -92,-37 -154,-108 -189,-213 -33,-102 -50,-267 -50,-495l0 -4497c0,-228 17,-392 50,-495 35,-104 97,-176 189,-213 91,-38 237,-62 438,-71l0 -134c-304,18 -763,-20 -1376,-20 -242,0 -511,-3 -807,-9 -295,-7 -500,-10 -615,-10 -549,0 -1011,74 -1387,224 -376,148 -659,358 -846,626 -188,269 -281,581 -281,938 0,331 84,650 252,956 169,307 455,562 860,766 403,204 938,306 1601,306l479 0 0 1580zm-390 -1762c-492,0 -832,-157 -1018,-471 -186,-314 -279,-741 -279,-1277 0,-588 87,-1020 261,-1298 174,-276 462,-415 863,-415 163,0 282,21 361,65 78,42 131,118 160,225 27,107 42,270 42,489l0 2682 -390 0z"/>
  </g>
 </g>
</svg>
