<?xml version="1.0" standalone="no"?>
<!DOCTYPE svg PUBLIC "-//W3C//DTD SVG 20010904//EN"
 "http://www.w3.org/TR/2001/REC-SVG-20010904/DTD/svg10.dtd">
<svg version="1.0" xmlns="http://www.w3.org/2000/svg"
 width="1040.000000pt" height="1040.000000pt" viewBox="0 0 1040.000000 1040.000000"
 preserveAspectRatio="xMidYMid meet">
<metadata>
Created by potrace 1.11, written by Peter Selinger 2001-2013
</metadata>
<g transform="translate(0.000000,1040.000000) scale(0.100000,-0.100000)"
fill="#000000" stroke="none">
<path d="M5 10388 c-3 -7 -4 -2346 -3 -5198 l3 -5185 5197 -3 5198 -2 0 5200
0 5200 -5195 0 c-4147 0 -5197 -3 -5200 -12z m8400 -2360 c-5 -38 -20 -260
-37 -543 -13 -235 -15 -1031 -1 -1157 l9 -88 -92 0 -91 0 -27 138 c-143 727
-378 1164 -728 1356 -84 47 -200 89 -308 112 -74 17 -131 19 -455 19 -330 0
-377 -2 -438 -19 -122 -33 -182 -98 -214 -232 -15 -62 -17 -189 -20 -1198 l-4
-1128 223 4 c205 5 230 7 313 32 181 54 306 151 422 328 110 168 213 414 258
621 l17 77 90 0 90 0 -6 -102 c-3 -57 -9 -328 -12 -603 -7 -508 2 -850 31
-1300 8 -121 15 -230 15 -242 0 -22 -3 -23 -92 -23 l-93 0 -23 118 c-97 499
-333 805 -697 903 -68 19 -115 23 -307 27 l-228 4 0 -963 c0 -581 4 -1008 10
-1074 18 -195 59 -306 139 -378 101 -91 229 -121 604 -143 l107 -6 0 -85 0
-84 -412 8 c-530 10 -1656 10 -2185 0 l-413 -8 0 84 0 85 98 6 c398 24 513 52
616 146 49 46 90 123 111 212 29 124 36 334 33 1048 l-3 705 -415 6 c-452 7
-572 17 -835 70 -456 93 -845 295 -1126 585 -115 120 -183 218 -260 378 -231
481 -238 999 -17 1429 67 131 144 231 265 348 118 113 246 200 408 279 272
132 504 195 905 247 121 16 206 17 830 13 382 -3 1314 -4 2070 -2 1160 2 1495
6 1842 20 36 2 37 1 33 -30z"/>
<path d="M4045 7889 c-552 -70 -800 -490 -822 -1389 -13 -532 64 -932 237
-1231 52 -89 189 -229 273 -278 32 -19 98 -49 145 -67 161 -60 208 -66 535
-71 l297 -5 0 1219 c0 736 -4 1271 -10 1352 -24 310 -73 392 -263 441 -61 15
-294 44 -317 39 -3 -1 -36 -6 -75 -10z"/>
</g>
</svg>
