<?xml version="1.0" standalone="no"?>
<!DOCTYPE svg PUBLIC "-//W3C//DTD SVG 20010904//EN"
 "http://www.w3.org/TR/2001/REC-SVG-20010904/DTD/svg10.dtd">
<svg version="1.0" xmlns="http://www.w3.org/2000/svg"
 width="1040.000000pt" height="1040.000000pt" viewBox="0 0 1040.000000 1040.000000"
 preserveAspectRatio="xMidYMid meet">
<metadata>
Created by potrace 1.11, written by Peter Selinger 2001-2013
</metadata>
<g transform="translate(0.000000,1040.000000) scale(0.100000,-0.100000)"
fill="#000000" stroke="none">
<path d="M0 5200 l0 -5200 5200 0 5200 0 0 5200 0 5200 -5200 0 -5200 0 0
-5200z m8405 2823 c-10 -72 -35 -500 -46 -798 -11 -285 -6 -728 10 -907 l7
-78 -92 0 -91 0 -27 138 c-86 434 -204 764 -359 1000 -145 221 -316 357 -542
430 -165 54 -200 57 -595 57 -325 0 -372 -2 -433 -19 -122 -33 -182 -98 -214
-232 -15 -62 -17 -189 -20 -1198 l-4 -1128 223 4 c205 5 230 7 313 32 236 71
381 214 530 521 58 120 123 305 150 428 l17 77 90 0 90 0 -6 -102 c-3 -57 -9
-326 -12 -598 -7 -505 2 -862 31 -1300 8 -118 15 -227 15 -242 l0 -28 -92 0
-93 0 -23 118 c-83 427 -275 721 -555 853 -126 58 -200 71 -449 76 l-228 5 0
-963 c0 -581 4 -1008 10 -1074 18 -195 59 -306 139 -378 102 -92 219 -119 614
-143 l97 -6 0 -84 0 -85 -417 8 c-536 10 -1640 10 -2175 0 l-418 -8 0 85 0 84
98 6 c398 24 513 52 616 146 49 46 90 123 111 212 29 124 36 334 33 1048 l-3
705 -415 6 c-452 7 -572 17 -835 70 -456 93 -845 295 -1126 585 -115 120 -183
218 -260 378 -230 478 -238 995 -21 1420 70 139 145 238 269 357 118 113 246
200 408 279 272 132 504 195 905 247 121 16 207 17 835 13 385 -3 1314 -4
2065 -2 1151 2 1496 6 1843 20 l37 2 -5 -37z"/>
<path d="M4045 7889 c-363 -47 -594 -249 -714 -624 -81 -251 -105 -451 -105
-865 0 -286 3 -342 22 -467 62 -394 168 -651 341 -823 97 -96 164 -139 289
-186 161 -60 208 -66 535 -71 l297 -5 0 1214 c0 706 -4 1271 -10 1351 -23 314
-72 398 -263 447 -61 15 -294 44 -317 39 -3 -1 -36 -6 -75 -10z"/>
</g>
</svg>
